P2
4 2
255
243 250 220 207 174 141 158 20 
