P2
4 4
127
14 8 110 86 87 94 97 40 34 83 40 27 85 93 77 
54 
